<svg version="1.0" xmlns="http://www.w3.org/2000/svg" width="512.000000" height="512.000000" viewBox="0 0 512.000000 512.000000" preserveAspectRatio="xMidYMid meet">
  <metadata>
    <rdf:RDF xmlns:rdf="http://www.w3.org/1999/02/22-rdf-syntax-ns#" xmlns:rdfs="http://www.w3.org/2000/01/rdf-schema#" xmlns:dc="http://purl.org/dc/elements/1.1/">
      <rdf:Description dc:format="image/svg+xml" dc:Label="1" dc:ContentProducer="001191330110MACRLGPT8B00000" dc:ProduceID="489318651" dc:ReservedCode1="N+UPaIFmSSDgTMdYcw7OTcRKtPhVyhxbYuUhgOr5EyA=" dc:ContentPropagator="001191330110MACRLGPT8B00000" dc:PropagateID="489318651" dc:ReservedCode2="N+UPaIFmSSDgTMdYcw7OTcRKtPhVyhxbYuUhgOr5EyA="/>
    </rdf:RDF>
  </metadata>
  <g transform="translate(0.000000,512.000000) scale(0.100000,-0.100000)" fill="#000000" stroke="none">
    <path d="M2120 4175 c-185 -37 -331 -115 -461 -244 -142 -143 -226 -311 -275 -552 -13 -65 -17 -147 -19 -359 -2 -295 2 -262 -75 -635 -68 -337 -65 -495 11 -559 25 -21 41 -26 85 -26 30 0 54 -2 54 -4 0 -2 -15 -29 -34 -61 -105 -173 -180 -447 -188 -685 l-3 -85 50 -7 c83 -11 533 -9 540 2 4 6 73 10 174 10 l169 0 22 52 22 52 23 -49 c13 -26 30 -52 37 -56 16 -11 1179 -12 1195 -1 6 4 22 30 34 57 l21 50 19 -40 c10 -22 20 -48 22 -57 4 -16 20 -17 163 -11 88 3 162 8 165 12 4 3 1 53 -7 111 -7 58 -22 183 -34 278 -34 282 -81 421 -177 523 -73 78 -107 92 -253 101 -306 20 -331 27 -375 102 -14 25 -39 96 -55 160 -27 107 -30 146 -10 146 14 0 120 137 170 219 54 91 105 207 130 295 14 49 21 60 41 63 63 9 117 92 126 192 10 106 -41 191 -122 207 -34 6 -35 7 -35 53 0 116 -114 336 -239 462 -47 47 -103 90 -146 114 -38 21 -90 51 -114 66 -65 43 -185 86 -286 103 -107 19 -275 19 -365 1z m418 -45 c45 -11 99 -29 120 -41 20 -11 28 -17 17 -14 -107 35 -346 31 -498 -9 -236 -61 -459 -205 -590 -381 -109 -145 -154 -270 -163 -450 -10 -184 31 -317 142 -462 l55 -72 -16 -32 c-71 -136 182 -352 292 -250 17 16 22 15 91 -22 48 -26 72 -45 72 -56 0 -10 -16 -50 -36 -89 -42 -85 -86 -125 -198 -183 -113 -58 -192 -106 -256 -154 -140 -106 -229 -113 -277 -22 -13 25 -16 57 -15 147 2 122 18 229 77 505 36 167 37 175 45 485 9 334 16 392 67 534 80 223 234 402 430 500 79 39 192 76 272 87 88 12 277 2 369 -21z m239 -225 c167 -43 315 -139 386 -252 42 -66 78 -186 75 -245 -2 -28 -8 -53 -13 -55 -6 -2 -19 13 -29 32 -11 20 -54 69 -96 109 -152 145 -355 211 -541 176 -30 -6 -106 -35 -170 -65 -142 -68 -208 -78 -308 -46 -36 11 -68 18 -72 16 -4 -3 -10 -20 -13 -39 -12 -63 -66 -154 -146 -243 -135 -150 -177 -258 -166 -433 3 -52 8 -105 12 -117 5 -20 3 -23 -20 -23 -57 0 -132 180 -143 344 -20 307 163 584 497 751 236 118 507 151 747 90z m65 -291 c143 -45 271 -150 343 -279 53 -95 68 -163 62 -274 -11 -206 -134 -460 -306 -632 -156 -156 -308 -189 -590 -128 -134 29 -202 53 -316 108 -159 78 -248 172 -294 308 -43 130 -36 287 20 401 18 37 62 96 109 147 83 89 130 162 151 233 9 33 16 41 28 36 49 -20 94 -26 161 -22 67 4 88 11 190 61 66 33 138 61 170 66 76 13 181 3 272 -25z m505 -289 c34 -24 57 -96 49 -156 -10 -77 -58 -159 -93 -159 -17 0 -17 1 12 56 27 51 34 131 13 152 -7 7 -24 12 -38 12 -21 0 -27 7 -38 42 -12 38 -12 44 4 55 24 17 65 16 91 -2z m-1620 -671 c17 -34 17 -36 0 -45 -21 -12 -22 -47 -1 -77 17 -25 84 -62 111 -62 10 0 25 -5 33 -10 41 -27 -69 -42 -118 -16 -40 21 -99 86 -117 129 -18 44 -11 81 18 102 35 24 56 18 74 -21z m1213 -416 c41 -161 72 -208 162 -248 42 -18 49 -27 69 -78 17 -43 22 -79 23 -147 0 -81 -3 -97 -29 -150 -54 -109 -110 -130 -350 -130 -157 0 -173 2 -211 22 -98 52 -151 162 -160 328 l-5 90 32 20 c63 39 88 138 66 256 l-7 36 87 6 c100 6 166 26 238 72 28 18 52 31 54 29 2 -2 16 -50 31 -106z m-551 23 l106 -18 7 -39 c14 -78 9 -157 -12 -191 -21 -35 -66 -63 -102 -63 -13 0 -46 -11 -74 -24 -29 -13 -84 -29 -124 -35 -145 -23 -242 -97 -306 -236 -48 -103 -59 -162 -85 -435 l-23 -240 -75 0 c-42 0 -161 3 -265 7 l-189 6 6 101 c11 193 74 426 160 590 72 136 175 223 411 346 152 80 215 147 265 282 l10 26 92 -29 c51 -17 140 -38 198 -48z m1174 -334 c89 -53 160 -170 196 -326 16 -71 81 -539 81 -587 0 -12 -23 -14 -137 -12 l-136 3 -23 62 c-23 60 -23 64 -7 105 10 28 16 77 17 139 l1 96 -76 114 c-42 63 -84 134 -94 159 -18 47 -33 234 -21 266 11 27 141 15 199 -19z m-1278 -172 c26 -137 8 -218 -80 -364 -55 -92 -61 -122 -42 -207 14 -65 14 -67 -12 -125 l-26 -59 -45 0 c-25 0 -95 3 -157 7 l-112 6 5 41 c2 23 13 131 24 241 15 148 26 220 45 274 46 136 107 215 201 258 60 27 165 44 176 28 3 -6 14 -51 23 -100z m1055 -301 c0 -14 -4 -23 -10 -19 -5 3 -10 15 -10 26 0 10 5 19 10 19 6 0 10 -12 10 -26z m60 -34 c0 -5 -4 -10 -10 -10 -5 0 -10 5 -10 10 0 6 5 10 10 10 6 0 10 -4 10 -10z m-100 -46 c0 -16 -16 -19 -25 -4 -8 13 4 32 16 25 5 -4 9 -13 9 -21z m-1011 -182 c-21 -8 -6 -21 64 -57 87 -46 85 -44 67 -55 -21 -13 22 -27 133 -42 l92 -13 -168 -3 c-109 -2 -175 1 -188 9 -29 15 -57 83 -70 172 -16 110 -7 122 40 50 22 -32 36 -59 30 -61z"/>
    <path d="M1368 2415 c-43 -204 -65 -396 -53 -463 9 -58 36 -82 91 -82 24 0 61 7 81 15 40 17 122 75 123 88 0 4 -21 7 -46 7 -69 0 -123 36 -150 99 -19 44 -18 48 6 26 11 -10 22 -16 25 -14 2 3 -7 36 -21 74 -16 43 -21 71 -15 75 7 4 7 35 1 95 -5 50 -11 117 -12 150 -3 60 -3 59 -30 -70z"/>
    <path d="M2780 3819 c0 -24 23 -21 28 4 2 10 -3 17 -12 17 -10 0 -16 -9 -16 -21z"/>
    <path d="M2695 3790 c-3 -5 1 -10 10 -10 9 0 13 5 10 10 -3 6 -8 10 -10 10 -2 0 -7 -4 -10 -10z"/>
    <path d="M2814 3749 c-10 -17 13 -36 27 -22 12 12 4 33 -11 33 -5 0 -12 -5 -16 -11z"/>
    <path d="M2694 3556 c-65 -21 -144 -69 -144 -88 0 -24 5 -23 86 18 50 25 92 38 138 43 36 4 68 10 72 13 27 28 -77 37 -152 14z"/>
    <path d="M2789 3346 c-50 -17 -88 -49 -121 -99 -29 -43 -35 -71 -19 -82 12 -7 23 5 60 66 20 32 43 53 76 69 47 23 55 23 170 8 34 -5 22 26 -15 39 -46 16 -106 15 -151 -1z"/>
    <path d="M2045 3272 c-103 -36 -212 -119 -188 -143 9 -9 23 -2 54 25 50 42 111 74 177 90 29 8 47 18 47 27 0 21 -33 21 -90 1z"/>
    <path d="M2435 3093 c12 -48 24 -197 19 -220 -8 -30 16 -31 42 -2 13 14 25 18 42 14 15 -4 34 1 49 11 l25 16 -54 57 c-31 31 -70 77 -87 104 -36 54 -46 59 -36 20z"/>
    <path d="M2039 3002 c-80 -42 -144 -135 -103 -149 6 -2 27 18 47 45 48 67 109 97 185 89 32 -3 63 -7 71 -8 28 -7 24 30 -4 41 -52 20 -139 12 -196 -18z"/>
    <path d="M2676 2790 c-159 -65 -266 -118 -272 -135 -19 -48 102 -125 197 -125 80 0 154 39 186 99 33 63 30 202 -5 201 -4 0 -52 -18 -106 -40z m-106 -186 c0 -14 10 -16 64 -12 73 4 77 -3 12 -22 -50 -14 -101 -8 -156 18 l-35 17 50 6 c28 3 53 7 58 7 4 1 7 -5 7 -14z"/>
    <path d="M1396 1589 c-81 -242 -128 -513 -94 -547 8 -8 64 -12 188 -12 l175 0 -50 29 c-62 36 -127 98 -166 158 -37 60 -38 76 -3 62 15 -5 28 -8 30 -6 2 2 -8 30 -21 63 -26 62 -32 99 -15 89 13 -8 13 -11 -11 86 -22 91 -26 99 -33 78z"/>
    <path d="M3532 1848 c5 -34 38 -37 38 -4 0 20 -5 26 -21 26 -15 0 -20 -5 -17 -22z"/>
    <path d="M3620 1780 c0 -5 7 -10 15 -10 8 0 15 5 15 10 0 6 -7 10 -15 10 -8 0 -15 -4 -15 -10z"/>
    <path d="M3584 1725 c-9 -23 15 -48 32 -34 10 8 11 16 3 30 -12 23 -28 25 -35 4z"/>
    <path d="M3476 4037 c-50 -51 -100 -108 -110 -127 l-19 -34 58 48 c32 26 71 54 87 62 l28 15 0 -33 c-1 -18 -12 -85 -25 -148 -13 -63 -22 -116 -21 -117 1 -2 27 10 57 27 61 32 129 62 129 56 0 -2 -33 -26 -73 -54 -114 -79 -115 -75 15 -107 139 -33 210 -62 187 -75 -25 -14 -139 -40 -179 -40 l-35 -1 30 -16 c46 -25 160 -29 231 -8 83 24 148 63 134 80 -16 19 -142 70 -236 96 -43 12 -80 22 -82 24 -1 1 39 35 90 76 105 83 178 155 178 173 0 20 -96 1 -234 -45 -65 -21 -120 -38 -121 -37 -1 2 4 48 11 103 17 126 17 175 2 175 -6 0 -52 -42 -102 -93z"/>
  </g>
</svg>